<?xml version="1.0" standalone="no"?>
<!DOCTYPE svg PUBLIC "-//W3C//DTD SVG 20010904//EN"
 "http://www.w3.org/TR/2001/REC-SVG-20010904/DTD/svg10.dtd">
<svg version="1.0" xmlns="http://www.w3.org/2000/svg"
 width="1024.000000pt" height="1024.000000pt" viewBox="0 0 1024.000000 1024.000000"
 preserveAspectRatio="xMidYMid meet">

<g transform="translate(0.000000,1024.000000) scale(0.100000,-0.100000)"
fill="#000000" stroke="none">
<path d="M4965 9820 c-172 -20 -310 -88 -443 -219 -57 -57 -81 -91 -122 -173
-67 -136 -83 -216 -77 -378 3 -99 9 -141 30 -205 35 -106 100 -214 182 -303
l68 -73 -5 -77 c-10 -165 -44 -189 -368 -262 -123 -28 -249 -58 -279 -66 -279
-81 -491 -252 -602 -489 -66 -141 -84 -282 -58 -459 11 -72 10 -77 -19 -148
-32 -80 -64 -200 -113 -428 -17 -80 -49 -203 -71 -274 -57 -188 -77 -287 -154
-796 -14 -96 -34 -233 -44 -305 -10 -71 -28 -191 -40 -265 -46 -288 -23 -406
108 -572 96 -120 175 -166 304 -175 172 -13 309 90 325 242 5 50 8 55 31 55
40 0 97 65 111 128 22 105 15 150 -49 329 l-61 167 75 245 c193 632 178 575
182 702 l4 116 48 80 c27 44 54 94 61 112 8 17 16 31 20 31 4 0 24 -46 45
-102 l37 -102 -3 -250 c-4 -245 -4 -255 -41 -421 -58 -271 -136 -724 -179
-1050 -21 -155 -23 -210 -23 -620 0 -478 1 -495 42 -705 29 -148 28 -172 -17
-375 -40 -183 -51 -338 -45 -629 3 -149 14 -377 25 -506 11 -129 23 -271 26
-315 l6 -80 -67 -39 c-168 -98 -285 -264 -285 -404 0 -100 59 -201 142 -243
38 -19 55 -20 316 -17 l277 3 68 32 c127 60 219 175 252 314 8 35 15 109 15
164 0 127 20 308 66 600 20 127 38 239 39 250 2 11 10 61 20 110 41 220 45
260 45 517 0 256 0 258 26 315 60 135 76 198 129 523 15 91 40 242 55 335 15
94 36 223 46 287 10 65 20 116 22 113 4 -4 26 -129 56 -320 64 -406 119 -724
136 -778 11 -35 33 -93 49 -129 l30 -65 6 -289 c5 -219 11 -317 26 -404 85
-493 129 -819 138 -1045 7 -145 12 -192 30 -240 47 -132 148 -232 273 -274 57
-19 88 -21 324 -21 284 -1 298 1 362 55 75 63 108 150 93 242 -21 134 -124
269 -271 359 l-80 49 0 55 c0 30 7 141 15 245 33 431 37 527 32 769 -4 187
-10 279 -25 361 -60 335 -57 288 -29 453 44 251 49 349 44 779 -3 219 -9 430
-15 468 -10 64 -25 191 -37 290 -12 107 -77 468 -147 810 -52 250 -52 250 -56
478 l-4 228 39 104 c21 58 41 105 44 105 3 0 20 -26 37 -57 17 -32 47 -80 66
-108 35 -48 36 -53 36 -140 0 -117 28 -224 204 -799 l55 -180 -36 -90 c-71
-181 -83 -226 -83 -305 0 -59 6 -88 24 -127 26 -56 67 -94 101 -94 20 0 23 -6
27 -49 26 -268 366 -340 576 -122 101 104 153 206 173 332 10 65 -1 207 -26
350 -8 44 -43 274 -50 324 -3 28 -8 61 -10 75 -2 14 -13 97 -25 185 -44 331
-70 466 -135 700 -25 88 -65 248 -89 355 -25 107 -63 249 -86 315 -37 105 -41
127 -36 175 4 30 9 99 13 153 16 281 -136 548 -405 713 -114 70 -211 100 -638
197 -228 52 -274 98 -274 276 0 52 3 59 31 80 42 31 146 173 180 246 53 114
72 213 67 354 -4 106 -10 141 -36 221 -65 199 -223 368 -407 438 -126 47 -253
65 -370 52z m177 -264 c96 -20 179 -68 249 -144 92 -101 128 -193 129 -327 0
-141 -51 -262 -157 -371 -85 -87 -160 -123 -275 -131 -149 -10 -247 25 -349
127 -114 112 -165 242 -156 394 6 115 35 195 102 283 112 149 271 208 457 169z
m-146 -1232 c70 -6 165 3 235 22 13 4 17 -8 22 -67 11 -129 91 -241 212 -299
55 -26 412 -121 531 -140 76 -13 221 -70 287 -114 76 -50 177 -150 210 -207
67 -116 84 -254 48 -402 -22 -91 -19 -111 33 -237 20 -47 49 -146 67 -220 43
-187 124 -517 154 -625 26 -97 40 -180 80 -485 24 -182 61 -422 102 -670 10
-58 18 -139 18 -181 0 -67 -4 -83 -38 -151 -45 -92 -95 -140 -140 -136 -50 5
-46 34 24 165 51 97 62 125 60 161 0 24 -5 52 -11 61 -15 28 -59 53 -95 53
-58 0 -92 -27 -136 -107 -76 -140 -65 -72 22 128 58 133 61 145 55 198 -7 73
-44 208 -192 709 -42 144 -56 208 -62 291 -8 100 -12 112 -67 230 -32 68 -75
156 -97 195 -41 77 -48 117 -93 523 -9 80 -20 152 -26 162 -17 33 -61 59 -99
59 -59 0 -99 -34 -150 -130 -59 -111 -91 -152 -149 -189 -103 -67 -219 -89
-332 -66 -100 21 -154 49 -217 112 -86 86 -92 106 -92 331 0 208 -5 233 -54
266 -51 33 -134 11 -154 -41 -6 -15 -12 -120 -15 -233 -3 -187 -6 -209 -26
-248 -69 -136 -259 -221 -427 -193 -88 15 -181 60 -236 114 -24 23 -68 87 -98
141 -61 110 -91 136 -156 136 -29 0 -48 -7 -67 -24 -39 -36 -38 -31 -93 -501
-12 -100 -22 -142 -42 -180 -48 -92 -70 -139 -120 -250 -47 -103 -50 -117 -56
-215 -4 -72 -15 -137 -35 -205 -27 -91 -106 -357 -182 -610 -17 -55 -33 -132
-36 -171 -5 -68 -4 -76 35 -160 47 -103 92 -220 92 -240 0 -29 -16 -12 -48 50
-18 35 -43 73 -56 85 -52 49 -133 43 -166 -12 -33 -54 -26 -94 41 -227 61
-123 66 -145 38 -163 -42 -26 -124 36 -163 125 -46 104 -51 151 -28 273 28
146 66 391 92 595 41 321 91 587 141 750 16 52 56 213 89 357 32 143 78 317
101 385 l42 123 -17 100 c-22 136 -20 193 9 281 30 89 61 140 129 212 135 143
246 192 595 263 158 32 295 71 351 99 53 27 127 97 157 147 28 48 53 137 53
190 0 31 1 31 33 22 17 -5 69 -12 113 -15z m208 -1614 c150 -102 411 -125 586
-51 l72 31 -6 -28 c-3 -15 -12 -68 -21 -119 -8 -50 -34 -156 -56 -235 l-40
-143 3 -290 4 -290 46 -210 c76 -346 97 -466 152 -855 43 -302 56 -462 56
-697 0 -281 -14 -480 -47 -653 -39 -208 -39 -222 1 -430 20 -102 41 -223 47
-270 13 -93 7 -512 -10 -710 -6 -63 -13 -151 -16 -195 -3 -44 -10 -127 -16
-185 -14 -165 -12 -277 8 -310 9 -15 52 -50 97 -76 159 -97 246 -176 246 -227
0 -18 -11 -19 -213 -15 -212 3 -214 3 -254 30 -26 17 -49 45 -64 75 -22 44
-24 65 -30 248 -6 177 -31 422 -59 570 -5 28 -12 75 -15 105 -4 30 -25 145
-47 255 -37 186 -40 215 -44 405 -7 356 -7 353 -52 485 -28 81 -49 173 -67
285 -15 91 -51 314 -80 495 -76 464 -122 752 -130 810 -8 63 -27 93 -70 110
-39 17 -86 7 -122 -27 -12 -12 -23 -17 -23 -11 0 6 -20 21 -44 33 -39 18 -50
20 -85 10 -61 -16 -73 -50 -101 -285 -13 -111 -81 -535 -120 -750 -16 -88 -41
-237 -55 -331 -29 -207 -37 -242 -77 -364 -30 -92 -32 -103 -39 -340 -4 -135
-10 -256 -13 -270 -3 -14 -19 -107 -36 -208 -16 -101 -39 -234 -49 -295 -56
-320 -74 -466 -80 -677 -8 -222 -13 -255 -54 -298 -48 -52 -68 -56 -291 -60
l-209 -4 6 31 c4 17 14 42 23 56 22 33 131 114 217 162 112 61 111 57 104 263
-4 96 -13 243 -22 325 -19 191 -35 492 -35 660 0 140 19 282 70 527 36 178 37
192 6 341 -60 286 -72 825 -28 1187 47 384 73 546 167 1035 l56 290 -4 290 -3
290 -32 115 c-34 119 -84 361 -78 368 2 2 28 -9 57 -23 30 -16 90 -33 143 -42
226 -37 454 33 579 178 l42 49 45 -50 c25 -27 72 -67 104 -90z"/>
<path d="M5370 7914 c-175 -17 -194 -21 -214 -43 -41 -45 -34 -129 12 -159 21
-14 39 -14 146 -4 66 7 152 12 190 12 64 0 70 2 102 34 42 42 45 82 8 125 -21
25 -83 55 -104 50 -3 -1 -66 -7 -140 -15z"/>
<path d="M4514 7904 c-58 -28 -73 -112 -29 -156 22 -22 36 -26 127 -32 57 -3
146 -9 200 -12 94 -6 97 -6 122 19 20 20 26 36 26 71 0 37 -5 48 -30 70 -35
29 -49 32 -229 46 -164 12 -150 13 -187 -6z"/>
<path d="M4988 6658 c-36 -30 -48 -66 -48 -139 l0 -59 -169 0 c-92 0 -181 -5
-198 -10 -54 -19 -79 -95 -51 -155 22 -48 51 -55 243 -55 l175 0 0 -145 0
-145 -179 0 c-177 0 -180 0 -209 -25 -37 -31 -48 -81 -28 -129 24 -59 52 -66
246 -66 l170 0 0 -105 c0 -124 13 -166 60 -190 40 -21 89 -13 127 19 26 23 27
27 31 149 l4 125 184 4 c183 3 184 3 210 29 18 18 28 41 31 73 5 42 3 48 -30
81 l-35 35 -180 0 c-148 0 -181 3 -185 14 -3 8 -4 59 -2 113 3 54 5 113 5 131
l0 32 176 0 c191 0 220 7 243 57 16 34 14 85 -5 111 -32 46 -61 52 -246 52
l-173 0 0 80 c0 73 -2 82 -26 106 -38 38 -104 43 -141 12z"/>
</g>
</svg>
